<?xml version="1.0" encoding="utf-8"?>
<!-- Generator: Adobe Illustrator 24.3.0, SVG Export Plug-In . SVG Version: 6.00 Build 0)  -->
<svg version="1.1" id="Layer_1" xmlns="http://www.w3.org/2000/svg" xmlns:xlink="http://www.w3.org/1999/xlink" x="0px" y="0px"
	 viewBox="0 0 1024 1024" style="enable-background:new 0 0 1024 1024;" xml:space="preserve">
<style type="text/css">
	.st0{fill:#FAB7F7;}
	.st1{fill:#00E5FF;}
	.st2{fill:#472CCE;}
	.st3{fill:#FF007F;}
	.st4{fill:#918AA9;}
	.st5{fill:#285C7F;}
	.st6{fill:#7B2CBF;}
	.st7{fill:#FFFFFF;}
</style>
<g>
	<path class="st0" d="M771.74,378.27h-0.02v-0.02h-0.02c-0.02,0-0.04,0-0.04,0h-0.02v-0.02h-0.02c-0.02,0-0.02,0-0.02,0
		c-5.62-1.02-12.97-4.82-18.83-4.82H408.33c-56.32,0-101.97,45.65-101.97,101.97v226.36c0,56.32,45.65,101.97,101.97,101.97H655.9
		l-40.43-98.07H491.99c-39.47,0-73.73-27.08-84.68-62.96c0,0,0,0-0.02-0.06l239.31-0.02h2.5c1.48,0,2.98-0.02,4.44-0.08
		c1.3-0.04,2.6-0.12,3.88-0.2c0.06,0,0.14-0.02,0.2-0.02c0.96-0.06,1.92-0.14,2.86-0.24c0.2-0.02,0.38-0.02,0.56-0.06
		c0.48-0.04,0.94-0.08,1.42-0.14c1.24-0.14,2.46-0.28,3.68-0.46c0.9-0.12,1.78-0.26,2.66-0.44c1.38-0.2,2.74-0.44,4.1-0.74
		c0.42-0.08,0.86-0.16,1.3-0.26c0.24-0.04,0.5-0.1,0.74-0.16c1.14-0.24,2.3-0.52,3.44-0.78c1.18-0.3,2.36-0.62,3.52-0.96
		c0.2-0.06,0.38-0.1,0.58-0.18c0.96-0.26,1.92-0.56,2.88-0.86c0.02,0,0.06-0.02,0.08-0.02c0.58-0.18,1.14-0.36,1.72-0.58
		c1.36-0.44,2.7-0.9,4.02-1.42c0.8-0.28,1.6-0.58,2.38-0.92c0.12-0.04,0.26-0.08,0.38-0.14c0.92-0.36,1.82-0.74,2.72-1.14
		c1.64-0.7,3.24-1.44,4.82-2.2c0.14-0.06,0.28-0.14,0.42-0.2c0.32-0.16,0.66-0.34,0.98-0.5c0.18-0.08,0.38-0.18,0.56-0.28
		c0.06-0.04,0.12-0.06,0.16-0.08c0.06-0.04,0.1-0.06,0.14-0.08c0.02,0,0.02-0.02,0.02-0.02c0.66-0.32,1.32-0.68,1.98-1.04
		c0.76-0.4,1.52-0.82,2.28-1.26c0.34-0.2,0.7-0.4,1.04-0.6c0.06-0.02,0.12-0.06,0.18-0.1c0.38-0.2,0.74-0.44,1.12-0.66
		c0.78-0.44,1.54-0.9,2.3-1.38c0.72-0.44,1.44-0.9,2.14-1.38c0.34-0.22,0.68-0.44,1.02-0.68c0.36-0.22,0.7-0.46,1.04-0.7
		c0.96-0.64,1.9-1.32,2.84-2c0.46-0.34,0.92-0.68,1.38-1.02c0.68-0.52,1.36-1.06,2.04-1.6c0.68-0.54,1.36-1.08,2.02-1.62
		c0.66-0.52,1.3-1.06,1.94-1.62l0.02-0.02c0.6-0.48,1.16-0.98,1.74-1.52c0.3-0.26,0.62-0.54,0.92-0.82
		c0.48-0.44,0.96-0.88,1.42-1.32c0.9-0.84,1.78-1.7,2.64-2.56s1.7-1.74,2.54-2.62l0.72-0.78c0.68-0.72,1.34-1.46,1.98-2.18
		c0.88-1,1.74-1.98,2.58-3.02c0.84-1.02,1.64-2.06,2.44-3.1c0.54-0.7,1.06-1.4,1.56-2.1c0.14-0.18,0.28-0.34,0.4-0.52
		c0.18-0.24,0.34-0.46,0.5-0.7c0.06-0.06,0.1-0.14,0.14-0.2c2.38-3.34,4.58-6.8,6.6-10.39c0.08-0.14,0.18-0.28,0.26-0.42
		c0.14-0.24,0.26-0.48,0.38-0.72c0.34-0.58,0.64-1.16,0.96-1.76c0.02-0.04,0.06-0.08,0.08-0.14c10.59-18.29,16.65-39.53,16.65-62.16
		l0.1-138.42C771.76,378.27,771.74,378.27,771.74,378.27z M437.45,456.46c0.68,0,1.34,0.02,2,0.08c0.36,0.02,0.72,0.06,1.08,0.12
		c2.5,0.28,4.9,0.92,7.15,1.88c0.3,0.12,0.58,0.26,0.88,0.4c1.1,0.52,2.18,1.12,3.2,1.82c0.3,0.18,0.58,0.38,0.88,0.6
		c0.24,0.16,0.5,0.36,0.74,0.54c1.74,1.34,3.3,2.9,4.64,4.64c0.18,0.24,0.38,0.5,0.54,0.74c0.22,0.3,0.42,0.58,0.6,0.88
		c0.7,1.02,1.3,2.1,1.82,3.2c0.14,0.3,0.28,0.58,0.4,0.88c0.96,2.24,1.6,4.64,1.88,7.14c0.06,0.36,0.1,0.72,0.12,1.08
		c0.06,0.66,0.08,1.32,0.08,2c0,14.37-11.65,26.02-26.02,26.02c-0.68,0-1.34-0.02-2-0.08c-0.36-0.02-0.72-0.06-1.08-0.12
		c-2.5-0.28-4.9-0.92-7.15-1.88c-0.3-0.12-0.58-0.26-0.88-0.4c-1.1-0.52-2.18-1.12-3.2-1.82c-0.3-0.18-0.58-0.38-0.88-0.6
		c-0.24-0.16-0.5-0.36-0.74-0.54c-1.74-1.34-3.3-2.9-4.64-4.64c-0.18-0.24-0.38-0.5-0.54-0.74c-0.22-0.3-0.42-0.58-0.6-0.88
		c-0.7-1.02-1.3-2.1-1.82-3.2c-0.14-0.3-0.28-0.58-0.4-0.88c-0.96-2.24-1.6-4.64-1.88-7.14c-0.06-0.36-0.1-0.72-0.12-1.08
		c-0.06-0.66-0.08-1.32-0.08-2C411.43,468.11,423.08,456.46,437.45,456.46z M507.58,480.48c0.02-0.36,0.06-0.72,0.12-1.08
		c0.28-2.5,0.92-4.9,1.88-7.14c0.12-0.3,0.26-0.58,0.4-0.88c0.52-1.1,1.12-2.18,1.82-3.2c0.18-0.3,0.38-0.58,0.6-0.88
		c0.16-0.24,0.36-0.5,0.54-0.74c1.34-1.74,2.9-3.3,4.64-4.64c0.24-0.18,0.5-0.38,0.74-0.54c0.3-0.22,0.58-0.42,0.88-0.6
		c1.02-0.7,2.1-1.3,3.2-1.82c0.3-0.14,0.58-0.28,0.88-0.4c2.24-0.96,4.64-1.6,7.15-1.88c0.36-0.06,0.72-0.1,1.08-0.12
		c0.66-0.06,1.32-0.08,2-0.08c14.37,0,26.02,11.65,26.02,26.02c0,0.68-0.02,1.34-0.08,2c-0.02,0.36-0.06,0.72-0.12,1.08
		c-0.28,2.5-0.92,4.9-1.88,7.14c-0.12,0.3-0.26,0.58-0.4,0.88c-0.52,1.1-1.12,2.18-1.82,3.2c-0.18,0.3-0.38,0.58-0.6,0.88
		c-0.16,0.24-0.36,0.5-0.54,0.74c-1.34,1.74-2.9,3.3-4.64,4.64c-0.24,0.18-0.5,0.38-0.74,0.54c-0.3,0.22-0.58,0.42-0.88,0.6
		c-1.02,0.7-2.1,1.3-3.2,1.82c-0.3,0.14-0.58,0.28-0.88,0.4c-2.24,0.96-4.64,1.6-7.15,1.88c-0.36,0.06-0.72,0.1-1.08,0.12
		c-0.66,0.06-1.32,0.08-2,0.08c-14.37,0-26.02-11.65-26.02-26.02C507.5,481.8,507.52,481.14,507.58,480.48z M629.58,508.5
		c-0.24,0-0.5,0-0.74-0.02c-0.12,0-0.22,0-0.34-0.02c-0.54,0-1.06-0.04-1.58-0.1c-0.26-0.02-0.54-0.06-0.8-0.1
		c-0.24-0.02-0.46-0.06-0.7-0.1c-0.42-0.06-0.82-0.14-1.22-0.22c-0.56-0.12-1.1-0.24-1.64-0.4c-0.48-0.14-0.94-0.28-1.4-0.44
		c-0.44-0.14-0.86-0.3-1.28-0.48c-5.86-2.34-10.71-6.81-13.51-12.43c-0.02,0,0-0.02,0-0.02c-0.2-0.4-0.4-0.8-0.58-1.2
		c-0.22-0.5-0.44-1.02-0.62-1.54c-0.22-0.54-0.4-1.12-0.56-1.68c-0.12-0.4-0.24-0.78-0.32-1.18c-0.1-0.4-0.2-0.8-0.26-1.22
		c-0.08-0.4-0.14-0.8-0.2-1.2c-0.06-0.34-0.1-0.66-0.12-1c-0.06-0.44-0.08-0.88-0.1-1.32c-0.02-0.44-0.04-0.9-0.04-1.34
		c0-14.37,11.65-26.02,26.02-26.02c10.81,0,20.05,6.58,24,15.95c1.3,3.1,2.02,6.5,2.02,10.07c0,3.82-0.84,7.47-2.32,10.75
		C649.2,502.23,640.13,508.5,629.58,508.5z"/>
	<path class="st0" d="M806.79,388.85c-10.63-5.4-22.43-9.94-35.01-10.58l0,0C784.46,380.63,796.22,382.25,806.79,388.85z"/>
	<path class="st1" d="M771.1,321.36l0.58-71.83c0-69.21-56.1-125.31-125.31-125.31H192.49c-69.21,0-125.31,56.1-125.31,125.31
		v267.75c0,69.21,56.1,125.31,125.31,125.31l112.44-0.42h1.42l100.91,0.44h0.02l239.31-0.02c29.76-0.06,57.1-10.47,78.58-27.88
		c0.02-0.02,0.04-0.02,0.04-0.04c0.02-0.02,0.04-0.02,0.06-0.06c7.95-6.42,15.07-13.81,21.2-21.98c0.06-0.06,0.1-0.1,0.14-0.16
		c0.06-0.06,0.1-0.14,0.14-0.2c2.38-3.34,4.58-6.8,6.6-10.39c0.08-0.14,0.18-0.28,0.26-0.42c0.14-0.24,0.26-0.48,0.38-0.72
		c0.34-0.58,0.64-1.16,0.96-1.76c0.02-0.04,0.06-0.08,0.08-0.14c10.59-18.29,16.65-39.53,16.65-62.16l0.1-138.42v-0.02L771.1,321.36
		z M437.45,456.46c0.68,0,1.34,0.02,2,0.08c0.36,0.02,0.72,0.06,1.08,0.12c2.5,0.28,4.9,0.92,7.15,1.88c0.3,0.12,0.58,0.26,0.88,0.4
		c1.1,0.52,2.18,1.12,3.2,1.82c0.3,0.18,0.58,0.38,0.88,0.6c0.24,0.16,0.5,0.36,0.74,0.54c1.74,1.34,3.3,2.9,4.64,4.64
		c0.18,0.24,0.38,0.5,0.54,0.74c0.22,0.3,0.42,0.58,0.6,0.88c0.7,1.02,1.3,2.1,1.82,3.2c0.14,0.3,0.28,0.58,0.4,0.88
		c0.96,2.24,1.6,4.64,1.88,7.14c0.06,0.36,0.1,0.72,0.12,1.08c0.06,0.66,0.08,1.32,0.08,2c0,14.37-11.65,26.02-26.02,26.02
		c-0.68,0-1.34-0.02-2-0.08c-0.36-0.02-0.72-0.06-1.08-0.12c-2.5-0.28-4.9-0.92-7.15-1.88c-0.3-0.12-0.58-0.26-0.88-0.4
		c-1.1-0.52-2.18-1.12-3.2-1.82c-0.3-0.18-0.58-0.38-0.88-0.6c-0.24-0.16-0.5-0.36-0.74-0.54c-1.74-1.34-3.3-2.9-4.64-4.64
		c-0.18-0.24-0.38-0.5-0.54-0.74c-0.22-0.3-0.42-0.58-0.6-0.88c-0.7-1.02-1.3-2.1-1.82-3.2c-0.14-0.3-0.28-0.58-0.4-0.88
		c-0.96-2.24-1.6-4.64-1.88-7.14c-0.06-0.36-0.1-0.72-0.12-1.08c-0.06-0.66-0.08-1.32-0.08-2
		C411.43,468.11,423.08,456.46,437.45,456.46z M559.45,484.48c-0.02,0.36-0.06,0.72-0.12,1.08c-0.28,2.5-0.92,4.9-1.88,7.14
		c-0.12,0.3-0.26,0.58-0.4,0.88c-0.52,1.1-1.12,2.18-1.82,3.2c-0.18,0.3-0.38,0.58-0.6,0.88c-0.16,0.24-0.36,0.5-0.54,0.74
		c-1.34,1.74-2.9,3.3-4.64,4.64c-0.24,0.18-0.5,0.38-0.74,0.54c-0.3,0.22-0.58,0.42-0.88,0.6c-1.02,0.7-2.1,1.3-3.2,1.82
		c-0.3,0.14-0.58,0.28-0.88,0.4c-2.24,0.96-4.64,1.6-7.15,1.88c-0.36,0.06-0.72,0.1-1.08,0.12c-0.66,0.06-1.32,0.08-2,0.08
		c-14.37,0-26.02-11.65-26.02-26.02c0-0.68,0.02-1.34,0.08-2c0.02-0.36,0.06-0.72,0.12-1.08c0.28-2.5,0.92-4.9,1.88-7.14
		c0.12-0.3,0.26-0.58,0.4-0.88c0.52-1.1,1.12-2.18,1.82-3.2c0.18-0.3,0.38-0.58,0.6-0.88c0.16-0.24,0.36-0.5,0.54-0.74
		c1.34-1.74,2.9-3.3,4.64-4.64c0.24-0.18,0.5-0.38,0.74-0.54c0.3-0.22,0.58-0.42,0.88-0.6c1.02-0.7,2.1-1.3,3.2-1.82
		c0.3-0.14,0.58-0.28,0.88-0.4c2.24-0.96,4.64-1.6,7.15-1.88c0.36-0.06,0.72-0.1,1.08-0.12c0.66-0.06,1.32-0.08,2-0.08
		c14.37,0,26.02,11.65,26.02,26.02C559.53,483.16,559.51,483.82,559.45,484.48z M246.27,539.52l-78.02,14.01
		c-37.03,5-24.02-22.02-24.02-22.02l31.16-69.97l2.86-195.68c0-44.51,36.09-80.6,80.6-80.6h317.14c44.51,0,80.6,36.09,80.6,80.6
		l-0.82,55.5H431.44c-2.06,0-4.12,0.04-6.18,0.16c-0.3,0-0.58,0.02-0.88,0.04c-1.06,0.06-2.12,0.12-3.18,0.22
		c-0.68,0.04-1.36,0.1-2.02,0.18c-1.02,0.08-2.04,0.2-3.04,0.32c-0.76,0.08-1.52,0.18-2.28,0.3c-3.6,0.48-7.17,1.14-10.67,1.94
		c-0.88,0.2-1.76,0.4-2.64,0.64c-0.88,0.2-1.76,0.44-2.64,0.68c-0.32,0.08-0.64,0.16-0.96,0.26c-1.2,0.34-2.38,0.68-3.56,1.06
		c-0.3,0.08-0.58,0.18-0.88,0.28c-1.22,0.38-2.44,0.8-3.66,1.24c-0.78,0.28-1.56,0.56-2.34,0.86c-1.28,0.48-2.54,0.98-3.78,1.5
		c-3.26,1.36-6.46,2.84-9.59,4.46c-0.74,0.38-1.46,0.76-2.18,1.16c-1.32,0.7-2.62,1.44-3.9,2.18c-0.3,0.2-0.6,0.38-0.92,0.56
		c-3.32,2-6.56,4.14-9.69,6.44c-1,0.74-1.98,1.48-2.96,2.24c-1.1,0.84-2.18,1.7-3.24,2.6c-0.52,0.44-1.06,0.88-1.58,1.34
		c-0.54,0.44-1.06,0.9-1.56,1.36c-0.74,0.64-1.44,1.28-2.14,1.94c-0.74,0.68-1.48,1.38-2.2,2.12c-0.72,0.7-1.44,1.4-2.14,2.12
		c-0.6,0.58-1.16,1.18-1.72,1.78c-0.28,0.3-0.56,0.6-0.84,0.9c-0.9,0.98-1.78,1.96-2.64,2.96c-0.62,0.72-1.22,1.42-1.82,2.14
		l-0.3,0.36c-0.58,0.72-1.16,1.44-1.74,2.16c-0.6,0.78-1.22,1.58-1.82,2.38c-1.72,2.28-3.36,4.64-4.92,7.05
		c-0.52,0.8-1.04,1.6-1.54,2.42c-0.44,0.7-0.86,1.4-1.28,2.12c-0.92,1.56-1.82,3.16-2.68,4.76c-0.44,0.82-0.86,1.64-1.28,2.46
		c-0.18,0.36-0.38,0.76-0.56,1.14c-0.48,0.96-0.94,1.92-1.38,2.88c-0.64,1.38-1.26,2.78-1.84,4.18c-0.32,0.76-0.64,1.52-0.94,2.3
		c-0.3,0.74-0.58,1.48-0.86,2.22c-0.28,0.74-0.56,1.5-0.82,2.24c-0.54,1.52-1.06,3.04-1.52,4.6c-0.24,0.76-0.48,1.54-0.7,2.32
		c-0.22,0.72-0.42,1.46-0.62,2.2c-0.24,0.9-0.48,1.82-0.72,2.74c-0.18,0.74-0.36,1.48-0.52,2.22c-0.22,0.98-0.44,1.98-0.64,2.96
		c-0.16,0.82-0.32,1.62-0.46,2.44c-0.06,0.28-0.12,0.58-0.16,0.86c-0.18,0.96-0.32,1.9-0.46,2.86c-0.16,1.04-0.32,2.08-0.44,3.12
		c-0.52,4.16-0.84,8.41-0.96,12.69v0.08l-0.1,94.21L246.27,539.52z M653.28,493.23c-4.08,9.01-13.15,15.27-23.7,15.27h-0.4
		c-0.1,0-0.22,0-0.34-0.02c-0.12,0-0.22,0-0.34-0.02c-0.54,0-1.06-0.04-1.58-0.1c-0.26-0.02-0.54-0.06-0.8-0.1
		c-0.24-0.02-0.46-0.06-0.7-0.1c-0.42-0.06-0.82-0.14-1.22-0.22c-0.56-0.12-1.1-0.24-1.64-0.4c-0.48-0.14-0.94-0.28-1.4-0.44
		c-6.78-2.42-12.39-7.59-15.37-14.13c-0.22-0.5-0.44-1.02-0.62-1.54c-0.22-0.54-0.4-1.12-0.56-1.68c-0.12-0.38-0.22-0.78-0.32-1.18
		c-0.1-0.4-0.2-0.8-0.26-1.22c-0.08-0.4-0.14-0.8-0.2-1.2c-0.06-0.34-0.1-0.66-0.12-1c-0.06-0.44-0.08-0.88-0.1-1.32
		c-0.02-0.08-0.02-0.14-0.02-0.22c-0.02-0.38-0.02-0.74-0.02-1.12c0-14.37,11.65-26.02,26.02-26.02c10.81,0,20.05,6.58,24,15.95
		c1.3,3.1,2.02,6.5,2.02,10.07C655.6,486.3,654.76,489.94,653.28,493.23z M771.72,378.27v-0.02h0.02v0.02H771.72z"/>
	<path class="st2" d="M431.44,321.36c-2.06,0-4.12,0.04-6.18,0.16c-0.3,0-0.58,0.02-0.88,0.04c-1.06,0.06-2.12,0.12-3.18,0.22
		c-0.68,0.04-1.36,0.1-2.02,0.18c-1.02,0.08-2.04,0.2-3.04,0.32c-0.76,0.08-1.52,0.18-2.28,0.3c-3.6,0.48-7.17,1.14-10.67,1.94
		c-0.88,0.2-1.76,0.4-2.64,0.64c-0.88,0.2-1.76,0.44-2.64,0.68c-0.32,0.08-0.64,0.16-0.96,0.26c-1.2,0.34-2.38,0.68-3.56,1.06
		c-0.3,0.08-0.58,0.18-0.88,0.28c-1.22,0.38-2.44,0.8-3.66,1.24c-0.78,0.28-1.56,0.56-2.34,0.86c-1.28,0.48-2.54,0.98-3.78,1.5
		c-3.26,1.36-6.46,2.84-9.59,4.46c-0.74,0.38-1.46,0.76-2.18,1.16c-1.32,0.7-2.62,1.44-3.9,2.18c-0.3,0.2-0.6,0.38-0.92,0.56
		c-3.32,2-6.56,4.14-9.69,6.44c-1,0.74-1.98,1.48-2.96,2.24c-1.1,0.84-2.18,1.7-3.24,2.6c-0.52,0.44-1.06,0.88-1.58,1.34
		c-0.54,0.44-1.06,0.9-1.56,1.36c-0.74,0.64-1.44,1.28-2.14,1.94c-0.74,0.68-1.48,1.38-2.2,2.12c-0.72,0.7-1.44,1.4-2.14,2.12
		c-0.6,0.58-1.16,1.18-1.72,1.78c-0.28,0.3-0.56,0.6-0.84,0.9c-0.9,0.98-1.78,1.96-2.64,2.96c-0.62,0.72-1.22,1.42-1.82,2.14
		l-0.3,0.36c-0.58,0.72-1.16,1.44-1.74,2.16c-0.6,0.78-1.22,1.58-1.82,2.38c-1.72,2.28-3.36,4.64-4.92,7.05
		c-0.52,0.8-1.04,1.6-1.54,2.42c-0.44,0.7-0.86,1.4-1.28,2.12c-0.92,1.56-1.82,3.16-2.68,4.76c-0.44,0.82-0.86,1.64-1.28,2.46
		c-0.18,0.36-0.38,0.76-0.56,1.14c-0.48,0.96-0.94,1.92-1.38,2.88c-0.64,1.38-1.26,2.78-1.84,4.18c-0.32,0.76-0.64,1.52-0.94,2.3
		c-0.3,0.74-0.58,1.48-0.86,2.22c-0.28,0.74-0.56,1.5-0.82,2.24c-0.54,1.52-1.06,3.04-1.52,4.6c-0.24,0.76-0.48,1.54-0.7,2.32
		c-0.22,0.72-0.42,1.46-0.62,2.2c-0.24,0.9-0.48,1.82-0.72,2.74c-0.18,0.74-0.36,1.48-0.52,2.22c-0.22,0.98-0.44,1.98-0.64,2.96
		c-0.16,0.82-0.32,1.62-0.46,2.44c-0.06,0.28-0.12,0.58-0.16,0.86c-0.18,0.96-0.32,1.9-0.46,2.86c-0.16,1.04-0.32,2.08-0.44,3.12
		c-0.52,4.16-0.84,8.41-0.96,12.69v0.08c-0.02,1.1-0.04,2.18-0.04,3.28l-0.06,90.92h2.06l97.29,0.04l248.96,0.1l0.68-46.29
		c-4.08,9.01-13.15,15.27-23.7,15.27c-0.24,0-0.5,0-0.74-0.02c-0.12,0-0.22,0-0.34-0.02c-0.54,0-1.06-0.04-1.58-0.1
		c-0.26-0.02-0.54-0.06-0.8-0.1c-0.24-0.02-0.46-0.06-0.7-0.1c-0.42-0.06-0.82-0.14-1.22-0.22c-0.56-0.12-1.1-0.24-1.64-0.4
		c-0.48-0.14-0.94-0.28-1.4-0.44c-6.88-2.34-12.49-7.53-15.37-14.13c-0.22-0.5-0.44-1.02-0.62-1.54c-0.22-0.54-0.4-1.12-0.56-1.68
		c-0.12-0.4-0.24-0.78-0.32-1.18c-0.1-0.4-0.2-0.8-0.26-1.22c-0.08-0.4-0.14-0.8-0.2-1.2c-0.06-0.34-0.1-0.66-0.12-1
		c-0.06-0.44-0.08-0.88-0.1-1.32c-0.02-0.44-0.04-0.9-0.04-1.34c0-14.37,11.65-26.02,26.02-26.02c10.81,0,20.05,6.58,24,15.95
		l0.46-30.96l0.84-58.04l0.06-4v-0.74l0.08-5.26l0.76-52.04H431.44z M437.45,508.5c-0.68,0-1.34-0.02-2-0.08
		c-0.36-0.02-0.72-0.06-1.08-0.12c-2.5-0.28-4.9-0.92-7.15-1.88c-0.3-0.12-0.58-0.26-0.88-0.4c-1.1-0.52-2.18-1.12-3.2-1.82
		c-0.3-0.18-0.58-0.38-0.88-0.6c-0.24-0.16-0.5-0.36-0.74-0.54c-1.74-1.34-3.3-2.9-4.64-4.64c-0.18-0.24-0.38-0.5-0.54-0.74
		c-0.22-0.3-0.42-0.58-0.6-0.88c-0.7-1.02-1.3-2.1-1.82-3.2c-0.14-0.3-0.28-0.58-0.4-0.88c-0.96-2.24-1.6-4.64-1.88-7.14
		c-0.06-0.36-0.1-0.72-0.12-1.08c-0.06-0.66-0.08-1.32-0.08-2c0-14.37,11.65-26.02,26.02-26.02c0.68,0,1.34,0.02,2,0.08
		c0.36,0.02,0.72,0.06,1.08,0.12c2.5,0.28,4.9,0.92,7.15,1.88c0.3,0.12,0.58,0.26,0.88,0.4c1.1,0.52,2.18,1.12,3.2,1.82
		c0.3,0.18,0.58,0.38,0.88,0.6c0.24,0.16,0.5,0.36,0.74,0.54c1.74,1.34,3.3,2.9,4.64,4.64c0.18,0.24,0.38,0.5,0.54,0.74
		c0.22,0.3,0.42,0.58,0.6,0.88c0.7,1.02,1.3,2.1,1.82,3.2c0.14,0.3,0.28,0.58,0.4,0.88c0.96,2.24,1.6,4.64,1.88,7.14
		c0.06,0.36,0.1,0.72,0.12,1.08c0.06,0.66,0.08,1.32,0.08,2C463.47,496.85,451.82,508.5,437.45,508.5z M559.45,484.48
		c-0.02,0.36-0.06,0.72-0.12,1.08c-0.28,2.5-0.92,4.9-1.88,7.14c-0.12,0.3-0.26,0.58-0.4,0.88c-0.52,1.1-1.12,2.18-1.82,3.2
		c-0.18,0.3-0.38,0.58-0.6,0.88c-0.16,0.24-0.36,0.5-0.54,0.74c-1.34,1.74-2.9,3.3-4.64,4.64c-0.24,0.18-0.5,0.38-0.74,0.54
		c-0.3,0.22-0.58,0.42-0.88,0.6c-1.02,0.7-2.1,1.3-3.2,1.82c-0.3,0.14-0.58,0.28-0.88,0.4c-2.24,0.96-4.64,1.6-7.15,1.88
		c-0.36,0.06-0.72,0.1-1.08,0.12c-0.66,0.06-1.32,0.08-2,0.08c-14.37,0-26.02-11.65-26.02-26.02c0-0.68,0.02-1.34,0.08-2
		c0.02-0.36,0.06-0.72,0.12-1.08c0.28-2.5,0.92-4.9,1.88-7.14c0.12-0.3,0.26-0.58,0.4-0.88c0.52-1.1,1.12-2.18,1.82-3.2
		c0.18-0.3,0.38-0.58,0.6-0.88c0.16-0.24,0.36-0.5,0.54-0.74c1.34-1.74,2.9-3.3,4.64-4.64c0.24-0.18,0.5-0.38,0.74-0.54
		c0.3-0.22,0.58-0.42,0.88-0.6c1.02-0.7,2.1-1.3,3.2-1.82c0.3-0.14,0.58-0.28,0.88-0.4c2.24-0.96,4.64-1.6,7.15-1.88
		c0.36-0.06,0.72-0.1,1.08-0.12c0.66-0.06,1.32-0.08,2-0.08c14.37,0,26.02,11.65,26.02,26.02
		C559.53,483.16,559.51,483.82,559.45,484.48z"/>
	<path class="st3" d="M829.73,321.36H429.44c-1.08,0-2.16,0.02-3.22,0.04c-1,0.02-1.98,0.06-2.96,0.12c-1.2,0.04-2.4,0.12-3.58,0.22
		c-1.02,0.06-2.02,0.16-3.02,0.26c-2.1,0.2-4.18,0.46-6.26,0.78c-1,0.14-1.98,0.3-2.96,0.48c-0.08,0.02-0.18,0.02-0.26,0.04
		c-0.72,0.14-1.46,0.26-2.18,0.42c-0.4,0.06-0.82,0.16-1.24,0.24c-0.86,0.18-1.72,0.36-2.56,0.56c-1.02,0.22-2.02,0.46-3.02,0.72
		c-0.6,0.16-1.2,0.3-1.8,0.46c-0.8,0.22-1.6,0.44-2.38,0.68c-2.42,0.7-4.8,1.46-7.15,2.3c-0.78,0.28-1.56,0.56-2.34,0.86
		c-1.28,0.48-2.54,0.98-3.78,1.5c-0.78,0.3-1.54,0.64-2.28,0.98c-1.8,0.78-3.58,1.6-5.32,2.46c-0.72,0.36-1.46,0.74-2.18,1.12
		c-0.7,0.36-1.38,0.72-2.08,1.1c-4.16,2.26-8.19,4.76-12.05,7.45c-0.8,0.56-1.58,1.12-2.36,1.7c-2.08,1.52-4.12,3.1-6.08,4.74
		c-0.54,0.44-1.08,0.88-1.6,1.34c-0.56,0.48-1.12,0.96-1.66,1.46c-0.74,0.64-1.44,1.28-2.14,1.94c-1.2,1.12-2.36,2.24-3.52,3.4
		c-0.58,0.56-1.14,1.16-1.7,1.74c-0.58,0.58-1.12,1.18-1.68,1.78c-0.56,0.6-1.1,1.2-1.64,1.82c-1,1.12-2,2.28-2.96,3.44
		c-2.66,3.24-5.18,6.6-7.53,10.09c-0.42,0.6-0.82,1.22-1.22,1.84l-1.44,2.28c-0.44,0.7-0.86,1.4-1.28,2.12
		c-2.92,4.92-5.52,10.09-7.75,15.43c-0.32,0.76-0.64,1.52-0.94,2.3c-0.3,0.74-0.58,1.48-0.86,2.22c-0.6,1.58-1.16,3.18-1.7,4.8
		c-0.48,1.44-0.92,2.9-1.34,4.36c-0.22,0.72-0.42,1.46-0.62,2.2c-1,3.68-1.84,7.43-2.5,11.23c-0.08,0.46-0.16,0.92-0.24,1.38
		c-0.02,0.08-0.02,0.14-0.02,0.22c-0.42,4.04-0.64,8.15-0.64,12.29l0.04,4.4v0.08c-0.02,1.1-0.04,2.16-0.04,3.26l0.94,91.32
		l0.64,102.79l-0.58,59.56c0,56.32,45.65,101.97,101.97,101.97H655.9l-40.43-98.07H489.98c-39.47,0-71.73-27.08-82.68-62.96
		c0,0,0,0-0.02-0.06l239.31-0.02h2.5c1.48,0,2.98-0.02,4.44-0.08c1.3-0.04,2.6-0.12,3.88-0.2c0.06,0,0.14-0.02,0.2-0.02
		c0.96-0.06,1.92-0.14,2.86-0.24c0.2-0.02,0.38-0.02,0.56-0.06c0.48-0.04,0.94-0.08,1.42-0.14c1.24-0.14,2.46-0.28,3.68-0.46
		c0.9-0.12,1.78-0.26,2.66-0.44c1.38-0.2,2.74-0.44,4.1-0.74c0.42-0.08,0.86-0.16,1.3-0.26c0.24-0.04,0.5-0.1,0.74-0.16
		c1.14-0.24,2.3-0.52,3.44-0.78c1.18-0.3,2.36-0.62,3.52-0.96c0.2-0.06,0.38-0.1,0.58-0.18c0.96-0.26,1.92-0.56,2.88-0.86
		c0.02,0,0.06-0.02,0.08-0.02c0.58-0.18,1.14-0.36,1.72-0.58c1.36-0.44,2.7-0.9,4.02-1.42c0.8-0.28,1.6-0.58,2.38-0.92
		c0.12-0.04,0.26-0.08,0.38-0.14c0.92-0.36,1.82-0.74,2.72-1.14c1.64-0.7,3.24-1.44,4.82-2.2c0.14-0.06,0.28-0.14,0.42-0.2
		c0.32-0.16,0.66-0.34,0.98-0.5c0.14-0.06,0.28-0.14,0.4-0.22c0.12-0.06,0.22-0.12,0.32-0.14c0.06-0.04,0.1-0.06,0.14-0.08
		c0.02,0,0.02-0.02,0.02-0.02c0.04-0.04,0.08-0.06,0.12-0.08c0.76-0.4,1.52-0.82,2.28-1.26c0.34-0.2,0.7-0.4,1.04-0.6
		c1.04-0.58,2.08-1.22,3.1-1.86c0.88-0.54,1.76-1.1,2.62-1.68c0.34-0.22,0.68-0.44,1.02-0.68c0.54-0.34,1.06-0.7,1.58-1.1
		c0.04,0,0.08-0.02,0.1-0.06c0.5-0.34,0.98-0.7,1.46-1.04c0.72-0.5,1.42-1.02,2.1-1.54c0.68-0.52,1.36-1.06,2.04-1.6
		c0.68-0.54,1.36-1.08,2.02-1.62c0.04-0.02,0.08-0.04,0.12-0.1c0.6-0.46,1.18-0.96,1.76-1.48c0.02-0.02,0.04-0.02,0.04-0.04
		c0.02-0.02,0.04-0.02,0.06-0.06c0.52-0.44,1.04-0.9,1.56-1.38c0.06-0.02,0.1-0.06,0.16-0.12c0.3-0.26,0.58-0.52,0.88-0.8l0.02-0.02
		c0.48-0.44,0.96-0.88,1.42-1.32c1.78-1.68,3.52-3.42,5.18-5.2c0.9-0.96,1.78-1.92,2.66-2.92c0,0,0-0.02,0.02-0.04
		c0.88-1,1.74-2,2.58-3.04c2.4-2.94,4.68-6.02,6.8-9.21c0.24-0.34,0.46-0.68,0.68-1.02c0.02-0.02,0.04-0.04,0.04-0.06
		c1.06-1.62,2.1-3.28,3.06-4.96c0.12-0.18,0.22-0.36,0.32-0.54c0.26-0.42,0.5-0.84,0.72-1.26c0.08-0.14,0.18-0.28,0.26-0.44
		c0.46-0.82,0.9-1.64,1.34-2.48c0.02-0.04,0.06-0.08,0.08-0.14c2.44-4.22,4.62-8.63,6.56-13.15c0.36-0.82,0.68-1.64,1.02-2.46
		c0.24-0.58,0.48-1.18,0.72-1.8c0.2-0.56,0.42-1.16,0.64-1.74c1.6-4.3,2.94-8.73,4.04-13.25c0.2-0.8,0.38-1.6,0.56-2.4
		c0.22-0.9,0.42-1.78,0.58-2.68c0.04-0.16,0.06-0.32,0.1-0.48c0.04-0.16,0.06-0.32,0.08-0.48c0-0.04,0.02-0.06,0.02-0.08
		c0.08-0.42,0.16-0.82,0.22-1.24c0.08-0.28,0.12-0.56,0.16-0.84c0.14-0.8,0.28-1.62,0.4-2.44c0.58-3.56,0.98-7.21,1.22-10.87
		c0.1-1.4,0.16-2.8,0.2-4.2c0.06-1.42,0.08-2.82,0.08-4.24l2.1-139.02h0.08c0.02,0.02,0.02,0.02,0.02,0.02c0.02,0,0.04,0,0.04,0
		c0.02,0.02,0.02,0.02,0.02,0.02c0.08,0,0.14,0.02,0.24,0.04c2.46,0.56,12.19,3.16,13.57,3.5c0.68,0.16,1.34,0.32,2.02,0.5
		c0.12,0.04,0.22,0.06,0.34,0.1c0.5,0.14,1.02,0.28,1.52,0.44c0.58,0.16,1.18,0.34,1.76,0.52c1.04,0.32,2.06,0.66,3.06,1.02
		c0.14,0.04,0.26,0.08,0.38,0.14c1.14,0.4,2.24,0.82,3.34,1.26c0.02,0.02,0.04,0.02,0.04,0.02h0.02c0.18,0.06,0.34,0.14,0.5,0.2
		c0.68,0.28,1.34,0.58,2,0.88c0.42,0.18,0.82,0.36,1.22,0.56c0.94,0.42,1.88,0.88,2.82,1.36c21.05,10.69,37.19,29.64,44.15,52.6
		c2.48,8.07,3.8,16.63,3.8,25.52v234.77c0,56.32-45.65,101.97-101.97,101.97H655.9l37.41,95.55h2l134.42,0.52
		c70.19,0,127.09-56.9,127.09-127.09V448.45C956.82,378.27,899.92,321.36,829.73,321.36z M559.53,482.48c0,0.68-0.02,1.34-0.08,2
		c-0.02,0.36-0.06,0.72-0.12,1.08c-0.28,2.5-0.92,4.9-1.88,7.14c-0.12,0.3-0.26,0.58-0.4,0.88c-0.52,1.1-1.12,2.18-1.82,3.2
		c-0.18,0.3-0.38,0.58-0.6,0.88c-0.16,0.24-0.36,0.5-0.54,0.74c-1.34,1.74-2.9,3.3-4.64,4.64c-0.24,0.18-0.5,0.38-0.74,0.54
		c-0.3,0.22-0.58,0.42-0.88,0.6c-1.02,0.7-2.1,1.3-3.2,1.82c-0.3,0.14-0.58,0.28-0.88,0.4c-2.24,0.96-4.64,1.6-7.15,1.88
		c-0.36,0.06-0.72,0.1-1.08,0.12c-0.66,0.06-1.32,0.08-2,0.08c-14.37,0-26.02-11.65-26.02-26.02c0-0.68,0.02-1.34,0.08-2
		c0.02-0.36,0.06-0.72,0.12-1.08c0.28-2.5,0.92-4.9,1.88-7.14c0.12-0.3,0.26-0.58,0.4-0.88c0.52-1.1,1.12-2.18,1.82-3.2
		c0.18-0.3,0.38-0.58,0.6-0.88c0.16-0.24,0.36-0.5,0.54-0.74c1.34-1.74,2.9-3.3,4.64-4.64c0.24-0.18,0.5-0.38,0.74-0.54
		c0.3-0.22,0.58-0.42,0.88-0.6c1.02-0.7,2.1-1.3,3.2-1.82c0.3-0.14,0.58-0.28,0.88-0.4c2.24-0.96,4.64-1.6,7.15-1.88
		c0.36-0.06,0.72-0.1,1.08-0.12c0.66-0.06,1.32-0.08,2-0.08C547.89,456.46,559.53,468.11,559.53,482.48z M437.45,456.46
		c0.68,0,1.34,0.02,2,0.08c0.36,0.02,0.72,0.06,1.08,0.12c2.5,0.28,4.9,0.92,7.15,1.88c0.3,0.12,0.58,0.26,0.88,0.4
		c1.1,0.52,2.18,1.12,3.2,1.82c0.3,0.18,0.58,0.38,0.88,0.6c0.24,0.16,0.5,0.36,0.74,0.54c1.74,1.34,3.3,2.9,4.64,4.64
		c0.18,0.24,0.38,0.5,0.54,0.74c0.22,0.3,0.42,0.58,0.6,0.88c0.7,1.02,1.3,2.1,1.82,3.2c0.14,0.3,0.28,0.58,0.4,0.88
		c0.96,2.24,1.6,4.64,1.88,7.14c0.06,0.36,0.1,0.72,0.12,1.08c0.06,0.66,0.08,1.32,0.08,2c0,14.37-11.65,26.02-26.02,26.02
		c-0.68,0-1.34-0.02-2-0.08c-0.36-0.02-0.72-0.06-1.08-0.12c-2.5-0.28-4.9-0.92-7.15-1.88c-0.3-0.12-0.58-0.26-0.88-0.4
		c-1.1-0.52-2.18-1.12-3.2-1.82c-0.3-0.18-0.58-0.38-0.88-0.6c-0.24-0.16-0.5-0.36-0.74-0.54c-1.74-1.34-3.3-2.9-4.64-4.64
		c-0.18-0.24-0.38-0.5-0.54-0.74c-0.22-0.3-0.42-0.58-0.6-0.88c-0.7-1.02-1.3-2.1-1.82-3.2c-0.14-0.3-0.28-0.58-0.4-0.88
		c-0.96-2.24-1.6-4.64-1.88-7.14c-0.06-0.36-0.1-0.72-0.12-1.08c-0.06-0.66-0.08-1.32-0.08-2
		C411.43,468.11,423.08,456.46,437.45,456.46z M629.58,508.5c-0.24,0-0.5,0-0.74-0.02c-0.12,0-0.22,0-0.34-0.02
		c-0.54,0-1.06-0.04-1.58-0.1c-0.26-0.02-0.54-0.06-0.8-0.1c-0.24-0.02-0.46-0.06-0.7-0.1c-0.42-0.06-0.82-0.14-1.22-0.22
		c-0.56-0.12-1.1-0.24-1.64-0.4c-0.48-0.14-0.94-0.28-1.4-0.44c-0.44-0.14-0.86-0.3-1.28-0.48c-5.86-2.34-10.71-6.81-13.51-12.43
		c-0.02,0,0-0.02,0-0.02c-0.2-0.4-0.4-0.8-0.58-1.2c-0.22-0.5-0.44-1.02-0.62-1.54c-0.22-0.54-0.4-1.12-0.56-1.68
		c-0.12-0.4-0.24-0.78-0.32-1.18c-0.1-0.4-0.2-0.8-0.26-1.22c-0.08-0.4-0.14-0.8-0.2-1.2c-0.06-0.34-0.1-0.66-0.12-1
		c-0.06-0.44-0.08-0.88-0.1-1.32c-0.02-0.44-0.04-0.9-0.04-1.34c0-14.37,11.65-26.02,26.02-26.02c10.81,0,20.05,6.58,24,15.95
		c1.3,3.1,2.02,6.5,2.02,10.07c0,3.82-0.84,7.47-2.32,10.75C649.2,502.23,640.13,508.5,629.58,508.5z"/>
	<path class="st4" d="M701.93,630.38c-0.1,0.08-0.2,0.12-0.32,0.18c-0.76,0.4-1.52,0.78-2.3,1.14c0,0.02-0.02,0.02-0.04,0.02
		c-1.02,0.5-2.06,0.98-3.1,1.44c-3.52,1.6-7.13,3-10.81,4.22c-0.6,0.22-1.2,0.42-1.8,0.6c-1.04,0.34-2.1,0.66-3.18,0.96
		c-1.24,0.38-2.52,0.72-3.78,1.04c-0.4,0.1-0.8,0.18-1.18,0.28c-1,0.24-2,0.48-3,0.68c-1.16,0.26-2.34,0.48-3.52,0.7
		c-2.7,0.5-5.42,0.9-8.19,1.2c-0.48,0.06-0.94,0.1-1.42,0.14c-1.2,0.14-2.42,0.24-3.62,0.32c-1.28,0.08-2.58,0.16-3.86,0.2
		c-0.34,0.02-0.7,0.02-1.04,0.02c-1.12,0.04-2.26,0.06-3.4,0.06l-240.07-0.98l239.31-0.02h2.5c1.48,0,2.98-0.02,4.44-0.08
		c1.3-0.04,2.6-0.12,3.88-0.2c0.06,0,0.14-0.02,0.2-0.02c0.96-0.06,1.92-0.14,2.86-0.24c0.2-0.02,0.38-0.02,0.56-0.06
		c0.48-0.04,0.94-0.08,1.42-0.14c1.24-0.14,2.46-0.28,3.68-0.46c0.9-0.12,1.78-0.26,2.66-0.44c1.38-0.2,2.74-0.44,4.1-0.74
		c0.42-0.08,0.86-0.16,1.3-0.26c0.24-0.04,0.5-0.1,0.74-0.16c1.14-0.24,2.3-0.52,3.44-0.78c1.18-0.3,2.36-0.62,3.52-0.96
		c0.2-0.06,0.38-0.1,0.58-0.18c0.96-0.26,1.92-0.56,2.88-0.86c0.02,0,0.06-0.02,0.08-0.02c0.58-0.18,1.14-0.36,1.72-0.58
		c1.36-0.44,2.7-0.9,4.02-1.42c0.8-0.28,1.6-0.58,2.38-0.92c0.12-0.04,0.26-0.08,0.38-0.14c0.92-0.36,1.82-0.74,2.72-1.14
		c1.64-0.7,3.24-1.44,4.82-2.2C701.65,630.52,701.79,630.44,701.93,630.38z"/>
	<path class="st4" d="M771.77,378.27L771.77,378.27C771.25,378.23,772.3,378.29,771.77,378.27L771.77,378.27
		C772.28,378.35,771.27,378.17,771.77,378.27z"/>
	<path class="st4" d="M771.11,321.36l0.66,56.9c-0.5-0.1,0.5,0.08,0,0L771.11,321.36L771.11,321.36z"/>
	<g>
		<path class="st5" d="M304.93,642.17l-0.64-102.79l-0.94-91.33c0-1.1,0.02-2.16,0.04-3.26l0.9,94.59l0,0L304.93,642.17z"/>
		<path class="st6" d="M771.1,321.36H422.94c-54.9,0-101.17,36.83-115.22,86.98c-1.76,6.3-3,12.79-3.7,19.45
			c-0.02,0.08-0.02,0.14-0.02,0.22c-0.42,4.04-0.64,8.15-0.64,12.29l0.04,4.4v0.08l0.9,94.59l0.64,102.79h1.42l100.91,0.44h0.02
			l239.31-0.02h2.5c1.48,0,2.98-0.02,4.44-0.08c1.3-0.04,2.6-0.12,3.88-0.2c0.06,0,0.14-0.02,0.2-0.02
			c0.96-0.06,1.92-0.14,2.86-0.24c0.2-0.02,0.38-0.02,0.56-0.06c0.48-0.04,0.94-0.08,1.42-0.14c1.24-0.14,2.46-0.28,3.68-0.46
			c0.9-0.12,1.78-0.26,2.66-0.44c1.38-0.2,2.74-0.44,4.1-0.74c0.42-0.08,0.86-0.16,1.3-0.26c0.24-0.04,0.5-0.1,0.74-0.16
			c1.14-0.24,2.3-0.52,3.44-0.78c1.18-0.3,2.36-0.62,3.52-0.96c0.2-0.06,0.38-0.1,0.58-0.18c0.96-0.26,1.92-0.56,2.88-0.86
			c0.02,0,0.06-0.02,0.08-0.02c0.58-0.18,1.14-0.36,1.72-0.58c1.36-0.44,2.7-0.9,4.02-1.42c0.8-0.28,1.6-0.58,2.38-0.92
			c0.12-0.04,0.26-0.08,0.38-0.14c0.92-0.36,1.82-0.74,2.72-1.14c1.64-0.7,3.24-1.44,4.82-2.2c0.14-0.06,0.28-0.14,0.42-0.2
			c0.32-0.16,0.66-0.34,0.98-0.5c0.18-0.08,0.38-0.18,0.56-0.28c0.06-0.04,0.12-0.06,0.16-0.08c0.06-0.04,0.1-0.06,0.14-0.08
			c0.02,0,0.02-0.02,0.02-0.02c0.66-0.32,1.32-0.68,1.98-1.04c0.76-0.4,1.52-0.82,2.28-1.26c0.34-0.2,0.7-0.4,1.04-0.6
			c0.06-0.02,0.12-0.06,0.18-0.1c0.38-0.2,0.74-0.44,1.12-0.66c0.78-0.44,1.54-0.9,2.3-1.38c0.72-0.44,1.44-0.9,2.14-1.38
			c0.34-0.22,0.68-0.44,1.02-0.68c0.36-0.22,0.7-0.46,1.04-0.7c0.18-0.12,0.36-0.26,0.54-0.4c0.04,0,0.08-0.02,0.1-0.06
			c0.5-0.34,0.98-0.7,1.46-1.04c0.24-0.16,0.5-0.34,0.74-0.5c0.46-0.34,0.92-0.68,1.38-1.02c0.68-0.52,1.36-1.06,2.04-1.6
			c0.68-0.54,1.36-1.08,2.02-1.62c0.66-0.52,1.3-1.06,1.94-1.62l0.02-0.02c0,0,0.02-0.02,0.02-0.04c0.52-0.42,1.04-0.88,1.56-1.36
			c0.06-0.02,0.1-0.06,0.16-0.12c0.3-0.26,0.62-0.54,0.92-0.82c0.48-0.44,0.96-0.88,1.42-1.32c0.9-0.84,1.78-1.7,2.64-2.56
			s1.7-1.74,2.54-2.62l0.72-0.78c0.68-0.72,1.34-1.46,1.98-2.18c0.88-1,1.74-1.98,2.58-3.02c0.84-1.02,1.64-2.06,2.44-3.1
			c0.54-0.7,1.06-1.4,1.56-2.1c0.14-0.18,0.28-0.34,0.4-0.52c0.12-0.18,0.24-0.36,0.36-0.54c0.06-0.06,0.1-0.1,0.14-0.16
			c0.06-0.06,0.1-0.14,0.14-0.2c2.38-3.34,4.58-6.8,6.6-10.39c0.08-0.14,0.18-0.28,0.26-0.42c0.14-0.24,0.26-0.48,0.38-0.72
			c0.34-0.58,0.64-1.16,0.96-1.76c0.02-0.04,0.06-0.08,0.08-0.14c6.02-11.41,10.25-23.94,12.27-37.17c0.04-0.16,0.06-0.32,0.08-0.48
			c0-0.04,0.02-0.06,0.02-0.08c0.12-0.88,0.24-1.74,0.36-2.62c0-0.06,0-0.1,0.02-0.14c0.58-4.82,0.9-9.73,0.9-14.71l1-101.69
			l2.1-43.69v-0.02L771.1,321.36z M559.53,482.48c0,0.68-0.02,1.34-0.08,2c-0.02,0.36-0.06,0.72-0.12,1.08
			c-0.28,2.5-0.92,4.9-1.88,7.14c-0.12,0.3-0.26,0.58-0.4,0.88c-0.52,1.1-1.12,2.18-1.82,3.2c-0.18,0.3-0.38,0.58-0.6,0.88
			c-0.16,0.24-0.36,0.5-0.54,0.74c-1.34,1.74-2.9,3.3-4.64,4.64c-0.24,0.18-0.5,0.38-0.74,0.54c-0.3,0.22-0.58,0.42-0.88,0.6
			c-1.02,0.7-2.1,1.3-3.2,1.82c-0.3,0.14-0.58,0.28-0.88,0.4c-2.24,0.96-4.64,1.6-7.15,1.88c-0.36,0.06-0.72,0.1-1.08,0.12
			c-0.66,0.06-1.32,0.08-2,0.08c-14.37,0-26.02-11.65-26.02-26.02c0-0.68,0.02-1.34,0.08-2c0.02-0.36,0.06-0.72,0.12-1.08
			c0.28-2.5,0.92-4.9,1.88-7.14c0.12-0.3,0.26-0.58,0.4-0.88c0.52-1.1,1.12-2.18,1.82-3.2c0.18-0.3,0.38-0.58,0.6-0.88
			c0.16-0.24,0.36-0.5,0.54-0.74c1.34-1.74,2.9-3.3,4.64-4.64c0.24-0.18,0.5-0.38,0.74-0.54c0.3-0.22,0.58-0.42,0.88-0.6
			c1.02-0.7,2.1-1.3,3.2-1.82c0.3-0.14,0.58-0.28,0.88-0.4c2.24-0.96,4.64-1.6,7.15-1.88c0.36-0.06,0.72-0.1,1.08-0.12
			c0.66-0.06,1.32-0.08,2-0.08C547.89,456.46,559.53,468.11,559.53,482.48z M437.45,456.46c0.68,0,1.34,0.02,2,0.08
			c0.36,0.02,0.72,0.06,1.08,0.12c2.5,0.28,4.9,0.92,7.15,1.88c0.3,0.12,0.58,0.26,0.88,0.4c1.1,0.52,2.18,1.12,3.2,1.82
			c0.3,0.18,0.58,0.38,0.88,0.6c0.24,0.16,0.5,0.36,0.74,0.54c1.74,1.34,3.3,2.9,4.64,4.64c0.18,0.24,0.38,0.5,0.54,0.74
			c0.22,0.3,0.42,0.58,0.6,0.88c0.7,1.02,1.3,2.1,1.82,3.2c0.14,0.3,0.28,0.58,0.4,0.88c0.96,2.24,1.6,4.64,1.88,7.14
			c0.06,0.36,0.1,0.72,0.12,1.08c0.06,0.66,0.08,1.32,0.08,2c0,14.37-11.65,26.02-26.02,26.02c-0.68,0-1.34-0.02-2-0.08
			c-0.36-0.02-0.72-0.06-1.08-0.12c-2.5-0.28-4.9-0.92-7.15-1.88c-0.3-0.12-0.58-0.26-0.88-0.4c-1.1-0.52-2.18-1.12-3.2-1.82
			c-0.3-0.18-0.58-0.38-0.88-0.6c-0.24-0.16-0.5-0.36-0.74-0.54c-1.74-1.34-3.3-2.9-4.64-4.64c-0.18-0.24-0.38-0.5-0.54-0.74
			c-0.22-0.3-0.42-0.58-0.6-0.88c-0.7-1.02-1.3-2.1-1.82-3.2c-0.14-0.3-0.28-0.58-0.4-0.88c-0.96-2.24-1.6-4.64-1.88-7.14
			c-0.06-0.36-0.1-0.72-0.12-1.08c-0.06-0.66-0.08-1.32-0.08-2C411.43,468.11,423.08,456.46,437.45,456.46z M629.58,508.5
			c-0.24,0-0.5,0-0.74-0.02c-0.12,0-0.22,0-0.34-0.02c-0.54,0-1.06-0.04-1.58-0.1c-0.26-0.02-0.54-0.06-0.8-0.1
			c-0.24-0.02-0.46-0.06-0.7-0.1c-0.42-0.06-0.82-0.14-1.22-0.22c-0.56-0.12-1.1-0.24-1.64-0.4c-0.48-0.14-0.94-0.28-1.4-0.44
			c-6.88-2.34-12.49-7.53-15.37-14.13c-0.22-0.5-0.44-1.02-0.62-1.54c-0.22-0.54-0.4-1.12-0.56-1.68c-0.12-0.4-0.24-0.78-0.32-1.18
			c-0.1-0.4-0.2-0.8-0.26-1.22c-0.08-0.4-0.14-0.8-0.2-1.2c-0.06-0.34-0.1-0.66-0.12-1c-0.06-0.44-0.08-0.88-0.1-1.32
			c-0.02-0.44-0.04-0.9-0.04-1.34c0-14.37,11.65-26.02,26.02-26.02c10.81,0,20.05,6.58,24,15.95c1.3,3.1,2.02,6.5,2.02,10.07
			c0,3.82-0.84,7.47-2.32,10.75C649.2,502.23,640.13,508.5,629.58,508.5z"/>
		<path class="st6" d="M771.74,378.27v-0.02h-0.02v0.02l-116.78,0.4l-163.56,0.56c-48.45,0-87.74,39.09-87.74,87.28v150.65
			c0,8.47,1.38,17.65,3.62,25.4c0,0.02,0.02,0.04,0.02,0.06l239.31-0.02h2.5c1.48,0,2.98-0.02,4.44-0.08c1.3-0.04,2.6-0.12,3.88-0.2
			c0.06,0,0.14-0.02,0.2-0.02c0.96-0.06,1.92-0.14,2.86-0.24c0.2-0.02,0.38-0.02,0.56-0.06c0.48-0.04,0.94-0.08,1.42-0.14
			c1.24-0.14,2.46-0.28,3.68-0.46c0.9-0.12,1.78-0.26,2.66-0.44c1.38-0.2,2.74-0.44,4.1-0.74c0.42-0.08,0.86-0.16,1.3-0.26
			c0.24-0.04,0.5-0.1,0.74-0.16c1.14-0.24,2.3-0.52,3.44-0.78c1.18-0.3,2.36-0.62,3.52-0.96c0.2-0.06,0.38-0.1,0.58-0.18
			c0.96-0.26,1.92-0.56,2.88-0.86c0.02,0,0.06-0.02,0.08-0.02c0.58-0.18,1.14-0.36,1.72-0.58c1.36-0.44,2.7-0.9,4.02-1.42
			c0.8-0.28,1.6-0.58,2.38-0.92c0.12-0.04,0.26-0.08,0.38-0.14c0.92-0.36,1.82-0.74,2.72-1.14c1.64-0.7,3.24-1.44,4.82-2.2
			c0.14-0.06,0.28-0.14,0.42-0.2c0.32-0.16,0.66-0.34,0.98-0.5c0.14-0.06,0.28-0.14,0.4-0.22c0.06-0.02,0.12-0.04,0.16-0.06
			c0.06-0.04,0.12-0.06,0.16-0.08c0.06-0.04,0.1-0.06,0.14-0.08c0.02,0,0.02-0.02,0.02-0.02c0.66-0.32,1.32-0.68,1.98-1.04
			c0.76-0.4,1.52-0.82,2.28-1.26c0.34-0.2,0.7-0.4,1.04-0.6c0.06-0.02,0.12-0.06,0.18-0.1c0.38-0.2,0.74-0.44,1.12-0.66
			c0.78-0.44,1.54-0.9,2.3-1.38c0.72-0.44,1.44-0.9,2.14-1.38c0.34-0.22,0.68-0.44,1.02-0.68c0.36-0.22,0.7-0.46,1.04-0.7
			c0.96-0.64,1.9-1.32,2.84-2c0.46-0.34,0.92-0.68,1.38-1.02c0.68-0.52,1.36-1.06,2.04-1.6c0.68-0.54,1.36-1.08,2.02-1.62
			c0.66-0.52,1.3-1.06,1.94-1.62l0.02-0.02c0.6-0.48,1.16-0.98,1.74-1.52c0.3-0.26,0.62-0.54,0.92-0.82
			c0.48-0.44,0.96-0.88,1.42-1.32c0.9-0.84,1.78-1.7,2.64-2.56s1.7-1.74,2.54-2.62l0.72-0.78c0.68-0.72,1.34-1.46,1.98-2.18
			c1.74-1.98,3.42-4.02,5.02-6.12c0.54-0.7,1.06-1.4,1.56-2.1c0.14-0.18,0.28-0.34,0.4-0.52c0.18-0.24,0.34-0.46,0.5-0.7
			c0.06-0.06,0.1-0.14,0.14-0.2c2.38-3.34,4.58-6.8,6.6-10.39c0.22-0.38,0.44-0.76,0.64-1.14c0.34-0.58,0.64-1.16,0.96-1.76
			c0.02-0.04,0.06-0.08,0.08-0.14c10.59-18.29,16.65-39.53,16.65-62.16l0.1-138.42C771.76,378.27,771.74,378.27,771.74,378.27z
			 M629.58,456.46c10.81,0,20.05,6.58,24,15.95c1.3,3.1,2.02,6.5,2.02,10.07c0,3.82-0.84,7.47-2.32,10.75
			c-4.08,9.01-13.15,15.27-23.7,15.27c-0.24,0-0.5,0-0.74-0.02c-0.12,0-0.22,0-0.34-0.02c-0.54,0-1.06-0.04-1.58-0.1
			c-0.26-0.02-0.54-0.06-0.8-0.1c-0.24-0.02-0.46-0.06-0.7-0.1c-0.42-0.06-0.82-0.14-1.22-0.22c-0.56-0.12-1.1-0.24-1.64-0.4
			c-0.48-0.14-0.94-0.28-1.4-0.44c-6.88-2.34-12.49-7.53-15.37-14.13c-0.22-0.5-0.44-1.02-0.62-1.54c-0.22-0.54-0.4-1.12-0.56-1.68
			c-0.12-0.4-0.24-0.78-0.32-1.18c-0.1-0.4-0.2-0.8-0.26-1.22c-0.08-0.4-0.14-0.8-0.2-1.2c-0.06-0.34-0.1-0.66-0.12-1
			c-0.06-0.44-0.08-0.88-0.1-1.32c-0.02-0.44-0.04-0.9-0.04-1.34C603.56,468.11,615.21,456.46,629.58,456.46z M507.58,480.48
			c0.02-0.36,0.06-0.72,0.12-1.08c0.28-2.5,0.92-4.9,1.88-7.14c0.12-0.3,0.26-0.58,0.4-0.88c0.52-1.1,1.12-2.18,1.82-3.2
			c0.18-0.3,0.38-0.58,0.6-0.88c0.16-0.24,0.36-0.5,0.54-0.74c1.34-1.74,2.9-3.3,4.64-4.64c0.24-0.18,0.5-0.38,0.74-0.54
			c0.3-0.22,0.58-0.42,0.88-0.6c1.02-0.7,2.1-1.3,3.2-1.82c0.3-0.14,0.58-0.28,0.88-0.4c2.24-0.96,4.64-1.6,7.15-1.88
			c0.36-0.06,0.72-0.1,1.08-0.12c0.66-0.06,1.32-0.08,2-0.08c14.37,0,26.02,11.65,26.02,26.02c0,0.68-0.02,1.34-0.08,2
			c-0.02,0.36-0.06,0.72-0.12,1.08c-0.28,2.5-0.92,4.9-1.88,7.14c-0.12,0.3-0.26,0.58-0.4,0.88c-0.52,1.1-1.12,2.18-1.82,3.2
			c-0.18,0.3-0.38,0.58-0.6,0.88c-0.16,0.24-0.36,0.5-0.54,0.74c-1.34,1.74-2.9,3.3-4.64,4.64c-0.24,0.18-0.5,0.38-0.74,0.54
			c-0.3,0.22-0.58,0.42-0.88,0.6c-1.02,0.7-2.1,1.3-3.2,1.82c-0.3,0.14-0.58,0.28-0.88,0.4c-2.24,0.96-4.64,1.6-7.15,1.88
			c-0.36,0.06-0.72,0.1-1.08,0.12c-0.66,0.06-1.32,0.08-2,0.08c-14.37,0-26.02-11.65-26.02-26.02
			C507.5,481.8,507.52,481.14,507.58,480.48z M437.45,456.46c0.68,0,1.34,0.02,2,0.08c0.36,0.02,0.72,0.06,1.08,0.12
			c2.5,0.28,4.9,0.92,7.15,1.88c0.3,0.12,0.58,0.26,0.88,0.4c1.1,0.52,2.18,1.12,3.2,1.82c0.3,0.18,0.58,0.38,0.88,0.6
			c0.24,0.16,0.5,0.36,0.74,0.54c1.74,1.34,3.3,2.9,4.64,4.64c0.18,0.24,0.38,0.5,0.54,0.74c0.22,0.3,0.42,0.58,0.6,0.88
			c0.7,1.02,1.3,2.1,1.82,3.2c0.14,0.3,0.28,0.58,0.4,0.88c0.96,2.24,1.6,4.64,1.88,7.14c0.06,0.36,0.1,0.72,0.12,1.08
			c0.06,0.66,0.08,1.32,0.08,2c0,14.37-11.65,26.02-26.02,26.02c-0.68,0-1.34-0.02-2-0.08c-0.36-0.02-0.72-0.06-1.08-0.12
			c-2.5-0.28-4.9-0.92-7.15-1.88c-0.3-0.12-0.58-0.26-0.88-0.4c-1.1-0.52-2.18-1.12-3.2-1.82c-0.3-0.18-0.58-0.38-0.88-0.6
			c-0.24-0.16-0.5-0.36-0.74-0.54c-1.74-1.34-3.3-2.9-4.64-4.64c-0.18-0.24-0.38-0.5-0.54-0.74c-0.22-0.3-0.42-0.58-0.6-0.88
			c-0.7-1.02-1.3-2.1-1.82-3.2c-0.14-0.3-0.28-0.58-0.4-0.88c-0.96-2.24-1.6-4.64-1.88-7.14c-0.06-0.36-0.1-0.72-0.12-1.08
			c-0.06-0.66-0.08-1.32-0.08-2C411.43,468.11,423.08,456.46,437.45,456.46z"/>
		<path class="st7" d="M463.47,482.48c0,14.37-11.65,26.02-26.02,26.02c-0.68,0-1.34-0.02-2-0.08c-0.36-0.02-0.72-0.06-1.08-0.12
			c-2.5-0.28-4.9-0.92-7.15-1.88c-0.3-0.12-0.58-0.26-0.88-0.4c-1.1-0.52-2.18-1.12-3.2-1.82c-0.3-0.18-0.58-0.38-0.88-0.6
			c-0.24-0.16-0.5-0.36-0.74-0.54c-1.74-1.34-3.3-2.9-4.64-4.64c-0.18-0.24-0.38-0.5-0.54-0.74c-0.22-0.3-0.42-0.58-0.6-0.88
			c-0.7-1.02-1.3-2.1-1.82-3.2c-0.14-0.3-0.28-0.58-0.4-0.88c-0.96-2.24-1.6-4.64-1.88-7.14c-0.06-0.36-0.1-0.72-0.12-1.08
			c-0.06-0.66-0.08-1.32-0.08-2c0-14.37,11.65-26.02,26.02-26.02c0.68,0,1.34,0.02,2,0.08c0.36,0.02,0.72,0.06,1.08,0.12
			c2.5,0.28,4.9,0.92,7.15,1.88c0.3,0.12,0.58,0.26,0.88,0.4c1.1,0.52,2.18,1.12,3.2,1.82c0.3,0.18,0.58,0.38,0.88,0.6
			c0.24,0.16,0.5,0.36,0.74,0.54c1.74,1.34,3.3,2.9,4.64,4.64c0.18,0.24,0.38,0.5,0.54,0.74c0.22,0.3,0.42,0.58,0.6,0.88
			c0.7,1.02,1.3,2.1,1.82,3.2c0.14,0.3,0.28,0.58,0.4,0.88c0.96,2.24,1.6,4.64,1.88,7.14c0.06,0.36,0.1,0.72,0.12,1.08
			C463.45,481.14,463.47,481.8,463.47,482.48z"/>
		<path class="st7" d="M655.6,482.48c0,3.82-0.84,7.47-2.32,10.75c-4.08,9.01-13.15,15.27-23.7,15.27c-0.24,0-0.5,0-0.74-0.02
			c-0.12,0-0.22,0-0.34-0.02c-0.54,0-1.06-0.04-1.58-0.1c-0.26-0.02-0.54-0.06-0.8-0.1c-0.24-0.02-0.46-0.06-0.7-0.1
			c-0.42-0.06-0.82-0.14-1.22-0.22c-0.56-0.12-1.1-0.24-1.64-0.4c-7.43-2.16-13.59-7.59-16.77-14.57c-0.22-0.5-0.44-1.02-0.62-1.54
			c-0.22-0.54-0.4-1.12-0.56-1.68c-0.12-0.38-0.22-0.78-0.32-1.18c-0.1-0.4-0.2-0.8-0.26-1.22c-0.08-0.4-0.14-0.8-0.2-1.2
			c-0.06-0.34-0.1-0.66-0.12-1c-0.06-0.44-0.08-0.88-0.1-1.32c-0.02-0.44-0.04-0.9-0.04-1.34c0-14.37,11.65-26.02,26.02-26.02
			c10.81,0,20.05,6.58,24,15.95C654.88,475.51,655.6,478.92,655.6,482.48z"/>
		<path class="st7" d="M559.53,482.48c0,0.68-0.02,1.34-0.08,2c-0.02,0.36-0.06,0.72-0.12,1.08c-0.28,2.5-0.92,4.9-1.88,7.14
			c-0.12,0.3-0.26,0.58-0.4,0.88c-0.52,1.1-1.12,2.18-1.82,3.2c-0.18,0.3-0.38,0.58-0.6,0.88c-0.16,0.24-0.36,0.5-0.54,0.74
			c-1.34,1.74-2.9,3.3-4.64,4.64c-0.24,0.18-0.5,0.38-0.74,0.54c-0.3,0.22-0.58,0.42-0.88,0.6c-1.02,0.7-2.1,1.3-3.2,1.82
			c-0.3,0.14-0.58,0.28-0.88,0.4c-2.24,0.96-4.64,1.6-7.15,1.88c-0.36,0.06-0.72,0.1-1.08,0.12c-0.66,0.06-1.32,0.08-2,0.08
			c-14.37,0-26.02-11.65-26.02-26.02c0-0.68,0.02-1.34,0.08-2c0.02-0.36,0.06-0.72,0.12-1.08c0.28-2.5,0.92-4.9,1.88-7.14
			c0.12-0.3,0.26-0.58,0.4-0.88c0.52-1.1,1.12-2.18,1.82-3.2c0.18-0.3,0.38-0.58,0.6-0.88c0.16-0.24,0.36-0.5,0.54-0.74
			c1.34-1.74,2.9-3.3,4.64-4.64c0.24-0.18,0.5-0.38,0.74-0.54c0.3-0.22,0.58-0.42,0.88-0.6c1.02-0.7,2.1-1.3,3.2-1.82
			c0.3-0.14,0.58-0.28,0.88-0.4c2.24-0.96,4.64-1.6,7.15-1.88c0.36-0.06,0.72-0.1,1.08-0.12c0.66-0.06,1.32-0.08,2-0.08
			C547.89,456.46,559.53,468.11,559.53,482.48z"/>
	</g>
</g>
</svg>
